<svg version="1.1" viewBox="0.0 0.0 960.0 720.0" fill="none" stroke="none" stroke-linecap="square" stroke-miterlimit="10" xmlns:xlink="http://www.w3.org/1999/xlink" xmlns="http://www.w3.org/2000/svg"><clipPath id="p.0"><path d="m0 0l960.0 0l0 720.0l-960.0 0l0 -720.0z" clip-rule="nonzero"/></clipPath><g clip-path="url(#p.0)"><path fill="#000000" fill-opacity="0.0" d="m0 0l960.0 0l0 720.0l-960.0 0z" fill-rule="evenodd"/><path fill="#ffffff" d="m437.41733 360.0l0 0c0 -23.517761 19.06491 -42.582672 42.582672 -42.582672l0 0c11.29364 0 22.124695 4.4863586 30.110504 12.472168c7.9858093 7.9858093 12.4721985 18.816864 12.4721985 30.110504l0 0c0 23.517761 -19.064941 42.582672 -42.582703 42.582672l0 0c-23.517761 0 -42.582672 -19.06491 -42.582672 -42.582672z" fill-rule="evenodd"/><path stroke="#000000" stroke-width="1.0" stroke-linejoin="round" stroke-linecap="butt" d="m437.41733 360.0l0 0c0 -23.517761 19.06491 -42.582672 42.582672 -42.582672l0 0c11.29364 0 22.124695 4.4863586 30.110504 12.472168c7.9858093 7.9858093 12.4721985 18.816864 12.4721985 30.110504l0 0c0 23.517761 -19.064941 42.582672 -42.582703 42.582672l0 0c-23.517761 0 -42.582672 -19.06491 -42.582672 -42.582672z" fill-rule="evenodd"/></g></svg>